<svg xmlns="http://www.w3.org/2000/svg" aria-hidden="true" style="position:absolute;width:0;height:0;overflow:hidden">
  <defs>
    <symbol id="icon-arrow-down" viewBox="0 0 32 32">
      <path d="M9.094 13.857a1.143 1.143 0 0 1 0-1.616l.197-.197a1.143 1.143 0 0 1 1.615-.001l4.286 4.277a1.143 1.143 0 0 0 1.614 0l4.286-4.277a1.143 1.143 0 0 1 1.615.001l.198.197c.446.446.446 1.17 0 1.616l-6.098 6.098a1.143 1.143 0 0 1-1.616 0l-6.098-6.098z"/>
    </symbol>
    <symbol id="icon-close" viewBox="0 0 32 32">
      <path fill="none" stroke="#fff" stroke-linecap="round" stroke-linejoin="round" stroke-width="1.714" d="M9.714 23.429 23.428 9.715m.001 13.714L9.715 9.715" style="stroke:var(--color1, #fff)"/>
    </symbol>
    <symbol id="icon-menu" viewBox="0 0 32 32">
      <path stroke-linecap="round" stroke-width="2.286" d="M4.429 9.571h23.143M4.429 16h23.143M4.429 22.429h23.143"/>
    </symbol>
    <symbol id="icon-plus" viewBox="0 0 32 32">
      <path fill="none" stroke="#fff" stroke-linecap="round" stroke-linejoin="round" stroke-width="1.778" d="M8 16h16m-8 8V8" style="stroke:var(--color1, #fff)"/>
    </symbol>
  </defs>
</svg>
